ply
format ascii 1.0
element vertex 162
property float x
property float y
property float z
element face 320
property list uchar int vertex_indices
end_header
0 -0.525731 0.850651 
0.850651 0 0.525731 
0.850651 0 -0.525731 
-0.850651 0 -0.525731 
-0.850651 0 0.525731 
-0.525731 0.850651 0 
0.525731 0.850651 0 
0.525731 -0.850651 0 
-0.525731 -0.850651 0 
0 -0.525731 -0.850651 
0 0.525731 -0.850651 
0 0.525731 0.850651 
1 0 0 
-1 0 0 
0 1 0 
0 0 -1 
0 -1 0 
0 0 1 
0.5 0.309017 -0.809017 
0.809017 0.5 -0.309017 
0.309017 0.809017 -0.5 
0.309017 0.809017 0.5 
0.809017 0.5 0.309017 
0.5 0.309017 0.809017 
-0.309017 0.809017 -0.5 
-0.809017 0.5 -0.309017 
-0.5 0.309017 -0.809017 
-0.5 0.309017 0.809017 
-0.809017 0.5 0.309017 
-0.309017 0.809017 0.5 
0.309017 -0.809017 -0.5 
0.809017 -0.5 -0.309017 
0.5 -0.309017 -0.809017 
0.5 -0.309017 0.809017 
0.809017 -0.5 0.309017 
0.309017 -0.809017 0.5 
-0.309017 -0.809017 -0.5 
-0.5 -0.309017 -0.809017 
-0.809017 -0.5 -0.309017 
-0.309017 -0.809017 0.5 
-0.809017 -0.5 0.309017 
-0.5 -0.309017 0.809017 
-0.259892 -0.433888 0.862669 
0 -0.273266 0.961938 
0.259892 -0.433888 0.862669 
0.160622 -0.69378 0.702047 
-0.160622 -0.69378 0.702047 
0.862669 -0.259892 0.433888 
0.702047 -0.160622 0.69378 
0.702047 0.160622 0.69378 
0.862669 0.259892 0.433888 
0.961938 0 0.273266 
0.702047 0.160622 -0.69378 
0.702047 -0.160622 -0.69378 
0.862669 -0.259892 -0.433888 
0.961938 0 -0.273266 
0.862669 0.259892 -0.433888 
-0.862669 -0.259892 -0.433888 
-0.702047 -0.160622 -0.69378 
-0.702047 0.160622 -0.69378 
-0.862669 0.259892 -0.433888 
-0.961938 0 -0.273266 
-0.702047 0.160622 0.69378 
-0.702047 -0.160622 0.69378 
-0.862669 -0.259892 0.433888 
-0.961938 0 0.273266 
-0.862669 0.259892 0.433888 
-0.433888 0.862669 -0.259892 
-0.273266 0.961938 0 
-0.433888 0.862669 0.259892 
-0.69378 0.702047 0.160622 
-0.69378 0.702047 -0.160622 
0.433888 0.862669 0.259892 
0.273266 0.961938 0 
0.433888 0.862669 -0.259892 
0.69378 0.702047 -0.160622 
0.69378 0.702047 0.160622 
0.433888 -0.862669 -0.259892 
0.273266 -0.961938 0 
0.433888 -0.862669 0.259892 
0.69378 -0.702047 0.160622 
0.69378 -0.702047 -0.160622 
-0.433888 -0.862669 0.259892 
-0.273266 -0.961938 0 
-0.433888 -0.862669 -0.259892 
-0.69378 -0.702047 -0.160622 
-0.69378 -0.702047 0.160622 
-0.259892 -0.433888 -0.862669 
-0.160622 -0.69378 -0.702047 
0.160622 -0.69378 -0.702047 
0.259892 -0.433888 -0.862669 
0 -0.273266 -0.961938 
-0.259892 0.433888 -0.862669 
0 0.273266 -0.961938 
0.259892 0.433888 -0.862669 
0.160622 0.69378 -0.702047 
-0.160622 0.69378 -0.702047 
0.259892 0.433888 0.862669 
0 0.273266 0.961938 
-0.259892 0.433888 0.862669 
-0.160622 0.69378 0.702047 
0.160622 0.69378 0.702047 
0.951057 0.262866 -0.16246 
0.951057 0.262866 0.16246 
0.850651 0.525731 0 
0.850651 -0.525731 0 
0.951057 -0.262866 0.16246 
0.951057 -0.262866 -0.16246 
-0.951057 0.262866 0.16246 
-0.951057 0.262866 -0.16246 
-0.850651 0.525731 0 
-0.951057 -0.262866 -0.16246 
-0.951057 -0.262866 0.16246 
-0.850651 -0.525731 0 
-0.16246 0.951057 0.262866 
0.16246 0.951057 0.262866 
0 0.850651 0.525731 
0.16246 0.951057 -0.262866 
-0.16246 0.951057 -0.262866 
0 0.850651 -0.525731 
0.262866 0.16246 -0.951057 
0.262866 -0.16246 -0.951057 
0.525731 0 -0.850651 
-0.262866 -0.16246 -0.951057 
-0.262866 0.16246 -0.951057 
-0.525731 0 -0.850651 
-0.16246 -0.951057 -0.262866 
0.16246 -0.951057 -0.262866 
0 -0.850651 -0.525731 
0.16246 -0.951057 0.262866 
-0.16246 -0.951057 0.262866 
0 -0.850651 0.525731 
0.262866 -0.16246 0.951057 
0.262866 0.16246 0.951057 
0.525731 0 0.850651 
-0.262866 0.16246 0.951057 
-0.262866 -0.16246 0.951057 
-0.525731 0 0.850651 
0.688191 0.425325 -0.587785 
0.587785 0.688191 -0.425325 
0.425325 0.587785 -0.688191 
0.587785 0.688191 0.425325 
0.688191 0.425325 0.587785 
0.425325 0.587785 0.688191 
-0.587785 0.688191 -0.425325 
-0.688191 0.425325 -0.587785 
-0.425325 0.587785 -0.688191 
-0.688191 0.425325 0.587785 
-0.587785 0.688191 0.425325 
-0.425325 0.587785 0.688191 
0.587785 -0.688191 -0.425325 
0.688191 -0.425325 -0.587785 
0.425325 -0.587785 -0.688191 
0.688191 -0.425325 0.587785 
0.587785 -0.688191 0.425325 
0.425325 -0.587785 0.688191 
-0.425325 -0.587785 -0.688191 
-0.688191 -0.425325 -0.587785 
-0.587785 -0.688191 -0.425325 
-0.587785 -0.688191 0.425325 
-0.688191 -0.425325 0.587785 
-0.425325 -0.587785 0.688191 
3 0 42 43 
3 0 43 44 
3 0 44 45 
3 0 45 46 
3 0 46 42 
3 1 47 48 
3 1 48 49 
3 1 49 50 
3 1 50 51 
3 1 51 47 
3 2 52 53 
3 2 53 54 
3 2 54 55 
3 2 55 56 
3 2 56 52 
3 3 57 58 
3 3 58 59 
3 3 59 60 
3 3 60 61 
3 3 61 57 
3 4 62 63 
3 4 63 64 
3 4 64 65 
3 4 65 66 
3 4 66 62 
3 5 67 68 
3 5 68 69 
3 5 69 70 
3 5 70 71 
3 5 71 67 
3 6 72 73 
3 6 73 74 
3 6 74 75 
3 6 75 76 
3 6 76 72 
3 7 77 78 
3 7 78 79 
3 7 79 80 
3 7 80 81 
3 7 81 77 
3 8 82 83 
3 8 83 84 
3 8 84 85 
3 8 85 86 
3 8 86 82 
3 9 87 88 
3 9 88 89 
3 9 89 90 
3 9 90 91 
3 9 91 87 
3 10 92 93 
3 10 93 94 
3 10 94 95 
3 10 95 96 
3 10 96 92 
3 11 97 98 
3 11 98 99 
3 11 99 100 
3 11 100 101 
3 11 101 97 
3 12 51 103 
3 12 103 102 
3 12 102 55 
3 12 55 107 
3 12 107 106 
3 12 106 51 
3 13 61 109 
3 13 109 108 
3 13 108 65 
3 13 65 112 
3 13 112 111 
3 13 111 61 
3 14 118 117 
3 14 117 73 
3 14 73 115 
3 14 115 114 
3 14 114 68 
3 14 68 118 
3 15 91 121 
3 15 121 120 
3 15 120 93 
3 15 93 124 
3 15 124 123 
3 15 123 91 
3 16 127 126 
3 16 126 83 
3 16 83 130 
3 16 130 129 
3 16 129 78 
3 16 78 127 
3 17 136 135 
3 17 135 98 
3 17 98 133 
3 17 133 132 
3 17 132 43 
3 17 43 136 
3 18 138 140 
3 18 140 94 
3 18 94 120 
3 18 120 122 
3 18 122 52 
3 18 52 138 
3 19 56 102 
3 19 102 104 
3 19 104 75 
3 19 75 139 
3 19 139 138 
3 19 138 56 
3 20 117 119 
3 20 119 95 
3 20 95 140 
3 20 140 139 
3 20 139 74 
3 20 74 117 
3 21 141 143 
3 21 143 101 
3 21 101 116 
3 21 116 115 
3 21 115 72 
3 21 72 141 
3 22 142 141 
3 22 141 76 
3 22 76 104 
3 22 104 103 
3 22 103 50 
3 22 50 142 
3 23 134 133 
3 23 133 97 
3 23 97 143 
3 23 143 142 
3 23 142 49 
3 23 49 134 
3 24 144 146 
3 24 146 96 
3 24 96 119 
3 24 119 118 
3 24 118 67 
3 24 67 144 
3 25 145 144 
3 25 144 71 
3 25 71 110 
3 25 110 109 
3 25 109 60 
3 25 60 145 
3 26 125 124 
3 26 124 92 
3 26 92 146 
3 26 146 145 
3 26 145 59 
3 26 59 125 
3 27 147 149 
3 27 149 99 
3 27 99 135 
3 27 135 137 
3 27 137 62 
3 27 62 147 
3 28 66 108 
3 28 108 110 
3 28 110 70 
3 28 70 148 
3 28 148 147 
3 28 147 66 
3 29 114 116 
3 29 116 100 
3 29 100 149 
3 29 149 148 
3 29 148 69 
3 29 69 114 
3 30 150 152 
3 30 152 89 
3 30 89 128 
3 30 128 127 
3 30 127 77 
3 30 77 150 
3 31 151 150 
3 31 150 81 
3 31 81 105 
3 31 105 107 
3 31 107 54 
3 31 54 151 
3 32 122 121 
3 32 121 90 
3 32 90 152 
3 32 152 151 
3 32 151 53 
3 32 53 122 
3 33 132 134 
3 33 134 48 
3 33 48 153 
3 33 153 155 
3 33 155 44 
3 33 44 132 
3 34 106 105 
3 34 105 80 
3 34 80 154 
3 34 154 153 
3 34 153 47 
3 34 47 106 
3 35 155 154 
3 35 154 79 
3 35 79 129 
3 35 129 131 
3 35 131 45 
3 35 45 155 
3 36 126 128 
3 36 128 88 
3 36 88 156 
3 36 156 158 
3 36 158 84 
3 36 84 126 
3 37 157 156 
3 37 156 87 
3 37 87 123 
3 37 123 125 
3 37 125 58 
3 37 58 157 
3 38 111 113 
3 38 113 85 
3 38 85 158 
3 38 158 157 
3 38 157 57 
3 38 57 111 
3 39 46 131 
3 39 131 130 
3 39 130 82 
3 39 82 159 
3 39 159 161 
3 39 161 46 
3 40 160 159 
3 40 159 86 
3 40 86 113 
3 40 113 112 
3 40 112 64 
3 40 64 160 
3 41 161 160 
3 41 160 63 
3 41 63 137 
3 41 137 136 
3 41 136 42 
3 41 42 161 
3 46 161 42 
3 42 136 43 
3 43 132 44 
3 44 155 45 
3 45 131 46 
3 51 106 47 
3 47 153 48 
3 48 134 49 
3 49 142 50 
3 50 103 51 
3 56 138 52 
3 52 122 53 
3 53 151 54 
3 54 107 55 
3 55 102 56 
3 61 111 57 
3 57 157 58 
3 58 125 59 
3 59 145 60 
3 60 109 61 
3 66 147 62 
3 62 137 63 
3 63 160 64 
3 64 112 65 
3 65 108 66 
3 71 144 67 
3 67 118 68 
3 68 114 69 
3 69 148 70 
3 70 110 71 
3 76 141 72 
3 72 115 73 
3 73 117 74 
3 74 139 75 
3 75 104 76 
3 81 150 77 
3 77 127 78 
3 78 129 79 
3 79 154 80 
3 80 105 81 
3 86 159 82 
3 82 130 83 
3 83 126 84 
3 84 158 85 
3 85 113 86 
3 91 123 87 
3 87 156 88 
3 88 128 89 
3 89 152 90 
3 90 121 91 
3 96 146 92 
3 92 124 93 
3 93 120 94 
3 94 140 95 
3 95 119 96 
3 101 143 97 
3 97 133 98 
3 98 135 99 
3 99 149 100 
3 100 116 101 
3 102 103 104 
3 105 106 107 
3 108 109 110 
3 111 112 113 
3 114 115 116 
3 117 118 119 
3 120 121 122 
3 123 124 125 
3 126 127 128 
3 129 130 131 
3 132 133 134 
3 135 136 137 
3 138 139 140 
3 141 142 143 
3 144 145 146 
3 147 148 149 
3 150 151 152 
3 153 154 155 
3 156 157 158 
3 159 160 161 